<?xml version="1.0" encoding="UTF-8"?>
<svg width="38px" height="38px" viewBox="0 0 38 38" version="1.1" xmlns="http://www.w3.org/2000/svg" xmlns:xlink="http://www.w3.org/1999/xlink">
    <title>人</title>
    <defs>
        <circle id="path-1" cx="19" cy="19" r="19"></circle>
        <polygon id="path-3" points="0.0860308891 0.0108333333 12.7798067 0.0108333333 12.7798067 20.0780667 0.0860308891 20.0780667"></polygon>
    </defs>
    <g id="页面-1" stroke="none" stroke-width="1" fill="none" fill-rule="evenodd">
        <g id="02运维概况" transform="translate(-1711.000000, -27.000000)">
            <g id="人" transform="translate(1711.000000, 27.000000)">
                <mask id="mask-2" fill="white">
                    <use xlink:href="#path-1"></use>
                </mask>
                <use id="蒙版" fill="#DAE3EF" fill-rule="nonzero" xlink:href="#path-1"></use>
                <g id="编组" mask="url(#mask-2)">
                    <g transform="translate(7.000000, 6.000000)">
                        <g id="编组" stroke-width="1" fill="none" transform="translate(6.166667, 0.155833)">
                            <mask id="mask-4" fill="white">
                                <use xlink:href="#path-3"></use>
                            </mask>
                            <g id="Clip-2"></g>
                            <path d="M11.1803333,19.5117333 C10.6888333,19.5964 10.1711667,19.6842333 9.6895,19.7655667 L11.4115,20.0780667 C11.4115,20.0780667 11.2486667,19.9382333 11.1803333,19.5117333 L11.1803333,19.5117333 Z M8.8105,10.2539 L12.2675,8.31706667 L12.6745,7.61073333 C12.9771667,4.83723333 12.5311667,4.59956667 12.5311667,4.59956667 C12.5311667,4.59956667 12.6711667,4.36856667 12.5215,3.72723333 C12.3685,3.0859 8.05866667,-1.86843333 3.43616667,0.787733333 C2.15033333,1.52673333 1.30733333,2.45773333 0.744166667,3.44406667 C-1.7005,10.0455667 3.4525,11.7155667 3.4525,11.7155667 L5.33716667,15.0390667 L8.8105,10.2539 Z" id="Fill-1" fill="#103D4C" mask="url(#mask-4)"></path>
                        </g>
                        <path d="M1.3477,21.318 C0.2702,23.6943333 3.33333333e-05,30.9891667 3.33333333e-05,30.9891667 L20.8300333,35.9891667 C21.2565333,40.53125 21.2565333,20.7613333 19.1015333,19.495 C16.9465333,18.2288333 15.7812,17.8836667 15.2377,16.9396667 C14.6972,16.0021667 8.7207,15.4065 8.7207,15.4065 C8.7207,15.4065 2.4252,18.9416667 1.3477,21.318 Z" id="Fill-3" fill="#07BBCD"></path>
                        <path d="M9.24805,11.7151 C9.24805,11.7151 9.38805,14.3551 8.66205,15.3999333 C8.61655,15.4651 8.63288333,15.5529333 8.69471667,15.5986 C12.16805,18.1116 14.3522167,17.5191 14.9967167,17.2457667 C15.1138833,17.1969333 15.18555,17.0797667 15.17905,16.9527667 C15.16605,16.6727667 15.1692167,16.1552667 15.3678833,15.8264333 C15.49155,15.6181 11.4648833,12.6916 9.89255,11.7151 C9.52155,11.4807667 9.24805,11.7151 9.24805,11.7151" id="Fill-5" fill="#038693"></path>
                        <path d="M9.82746667,12.3987 C9.82746667,12.3987 12.0051333,17.2815333 14.5669667,16.5035333 C17.3308,15.6637 10.8691333,10.9990333 10.8691333,10.9990333 L9.82746667,12.3987 Z" id="Fill-7" fill="#016D78"></path>
                        <path d="M9.61913333,11.87135 C9.61913333,11.87135 10.2766333,14.2020167 12.8028,15.2600167 C13.4863,15.5496833 14.8926333,16.1455167 15.3743,16.23985 C15.6738,16.29835 16.9694667,16.45135 17.3111333,15.5985167 C17.5683,15.00935 17.6724667,14.31935 17.8581333,13.89285 C18.0436333,13.46635 18.6263,10.5236833 18.6881333,10.17535 C18.7499667,9.82701667 18.7109667,9.19551667 18.7239667,8.94485 C18.7369667,8.69435 18.9486333,8.12135 18.9486333,7.90968333 C18.9486333,7.69818333 18.8704667,7.43118333 18.8476333,7.23918333 C18.8086333,6.92351667 18.7694667,5.48785 18.6783,5.21768333 C18.5873,4.94751667 18.4831333,4.36485 17.8613,4.21835 C14.3326333,3.53468333 10.1498,8.05951667 9.7363,8.87335 C9.67446667,8.75285 9.53446667,8.53468333 9.4368,8.41435 C9.31646667,8.23201667 8.7858,7.85118333 8.48963333,7.82835 C8.19663333,7.80235 7.76696667,7.93901667 7.59763333,8.12135 C7.43163333,8.30368333 7.3373,9.00685 7.46746667,9.72935 C7.59763333,10.4520167 8.4798,11.6760167 8.5873,11.7770167 C9.1308,12.31085 9.61913333,11.87135 9.61913333,11.87135" id="Fill-9" fill="#FFC7AE"></path>
                        <path d="M16.9303333,1.9983 C16.9303333,1.9983 19.0331667,3.34263333 19.6191667,2.19363333 C19.6191667,2.19363333 19.5605,4.10446667 17.0833333,4.9573" id="Fill-11" fill="#103D4C"></path>
                        <path d="M18.8737,5.96965 C18.8118667,5.31531667 18.6620333,5.02565 18.6620333,5.02565 L18.5872,4.15331667 L16.0710333,3.60315 L12.0150333,3.96448333 L9.52803333,6.51331667 L9.6387,8.36881667 C9.6387,8.36881667 9.70053333,8.92865 9.87953333,9.24115 C9.87953333,9.24115 10.5045333,8.28731667 11.4942,8.36881667 C12.4837,8.45331667 14.4368667,7.61998333 15.5468667,6.45798333 C16.2565333,5.71248333 16.7773667,5.13965 17.2200333,4.86615 C17.2070333,4.85631667 17.2005333,4.84981667 17.2005333,4.84981667 L17.6367,4.48198333 L17.8190333,4.51781667 C17.8060333,4.50148333 17.7897,4.48848333 17.7702,4.47881667 C17.8580333,4.43648333 18.6230333,4.59265 18.6490333,5.80681667 C18.6913667,7.55815 18.9257,7.70798333 18.9257,7.70798333 C18.9257,7.70798333 18.8282,7.00481667 18.8737,5.96965" id="Fill-13" fill="#103D4C"></path>
                        <path d="M18.2747333,3.85051667 C18.2747333,3.85051667 18.9452333,3.81151667 19.3652333,3.40135 C19.3652333,3.40135 18.8085667,4.47885 18.9062333,5.36101667 C19.0039,6.24301667 18.2747333,3.85051667 18.2747333,3.85051667" id="Fill-15" fill="#103D4C"></path>
                    </g>
                </g>
            </g>
        </g>
    </g>
</svg>