<?xml version="1.0" encoding="UTF-8"?>
<svg width="18px" height="18px" viewBox="0 0 18 18" version="1.1" xmlns="http://www.w3.org/2000/svg" xmlns:xlink="http://www.w3.org/1999/xlink">
    <title>获取 (1)</title>
    <g id="页面-1" stroke="none" stroke-width="1" fill="none" fill-rule="evenodd">
        <g id="00整合切图" transform="translate(-259.000000, -376.000000)" fill="#F47E4B" fill-rule="nonzero">
            <g id="获取-(1)" transform="translate(259.000000, 376.000000)">
                <path d="M15.802125,9.4400625 C16.243125,8.9252625 17.0148375,8.85170625 17.5477125,9.2746125 C17.5477125,9.2746125 17.5660875,9.29300625 17.5844625,9.29300625 C18.0989625,9.75268125 18.135675,10.5248813 17.6947125,11.0397563 L13.5053062,15.8385938 C12.9357,16.4821313 12.1272187,16.8498563 11.2819875,16.8498563 L4.9978875,16.8498563 L3.8953875,17.9530687 L0,14.1470438 L2.793,11.3706375 C3.95056875,10.230675 5.65940625,9.844575 7.20286875,10.3777875 L7.809225,10.5984188 L11.6311125,10.5984188 C12.2926125,10.6167938 12.8071125,11.1684188 12.7887187,11.8302938 C12.7335937,12.4922438 12.2007187,13.0070438 11.5392562,12.9886688 L9.2791875,12.9886688 C9.0586875,13.0254188 8.8933125,13.1909438 8.8749375,13.3931625 C8.8381875,13.6505813 9.0219375,13.8712313 9.2791875,13.908 L11.5392562,13.908 C12.6968437,13.908 13.652325,13.0070625 13.70745,11.8487063 L13.70745,11.8119188 L15.8021437,9.44004375 L15.802125,9.4400625 Z M11.2306875,3.375 L14.64375,3.375 L9.009375,9 L3.375,3.375 L6.7880625,3.375 C6.78768671,3.36250353 6.78749919,3.35000212 6.7875,3.3375 L6.7875,1.2 C6.7875,0.5372625 7.3247625,0 7.9875,0 L10.03125,0 C10.6939875,0 11.23125,0.5372625 11.23125,1.2 L11.23125,3.3375 C11.23125,3.3500625 11.2310625,3.36255 11.2306875,3.375 Z" id="形状"></path>
            </g>
        </g>
    </g>
</svg>