<?xml version="1.0" encoding="UTF-8"?>
<svg width="20px" height="22px" viewBox="0 0 20 22" version="1.1" xmlns="http://www.w3.org/2000/svg" xmlns:xlink="http://www.w3.org/1999/xlink">
    <title>home_icon_detection_normal</title>
    <g id="页面-1" stroke="none" stroke-width="1" fill="none" fill-rule="evenodd">
        <g id="00整合切图" transform="translate(-387.000000, -69.000000)" fill="#8E9AA8" fill-rule="nonzero">
            <g id="编组" transform="translate(386.000000, 69.000000)">
                <g id="设备监测" transform="translate(1.600000, 1.000000)">
                    <path d="M12.5475499,15.8434767 L4.46885788,15.8434767 L4.46885788,17.109378 L12.5475499,17.109378 L12.5475499,15.8434767 Z M13.9607968,15.730242 C13.5930912,15.730242 13.295007,16.0611931 13.295007,16.469442 C13.295007,16.8776909 13.5930912,17.208642 13.9607968,17.208642 L14.1076172,17.208642 C14.4753228,17.208642 14.773407,16.8776909 14.773407,16.469442 C14.773407,16.0611931 14.4753228,15.730242 14.1076172,15.730242 L13.9607968,15.730242 Z M5.800575,8.981346 C6.08894403,7.13419491 7.67984997,5.77238402 9.549375,5.77238402 C11.4189,5.77238402 13.009806,7.13419491 13.298175,8.981346 C13.3538718,9.3586846 13.7049164,9.61942679 14.082255,9.56372998 C14.4595936,9.50803317 14.7203358,9.15698861 14.664639,8.77965 C14.2792352,6.25234576 12.1058966,4.38530741 9.549375,4.38530741 C6.99285337,4.38530741 4.81951485,6.25234576 4.434111,8.77965 C4.37841419,9.15698861 4.63915639,9.50803319 5.016495,9.56373 C5.39383361,9.61942681 5.74487819,9.35868461 5.800575,8.981346 L5.800575,8.981346 Z" id="形状" stroke="#8E9AA8" stroke-width="0.4"></path>
                    <path d="M9.549375,0.01485 C4.5145979,0.0210987656 0.34597222,3.92797353 0.013695,8.951778 C0.00673346226,9.11388083 0.0666821648,9.27172358 0.179499217,9.38833448 C0.292316268,9.50494538 0.448090631,9.57008009 0.610335,9.56851073 L0.652575,9.56851073 C0.968386379,9.56434329 1.22625996,9.31480315 1.240767,8.999298 C1.5365976,4.62834862 5.16842599,1.23401762 9.549375,1.23401762 C13.930324,1.23401762 17.5621524,4.62834862 17.857983,8.999298 C17.87249,9.31480315 18.1303636,9.56434329 18.446175,9.56851073 L18.488415,9.56851073 C18.6506594,9.57008009 18.8064337,9.50494538 18.9192508,9.38833448 C19.0320678,9.27172358 19.0920165,9.11388083 19.085055,8.951778 C18.7527778,3.92797353 14.5841521,0.0210987656 9.549375,0.01485 Z" id="路径" stroke="#8E9AA8" stroke-width="0.4"></path>
                    <path d="M8.8,8.141826 L10.5575919,8.141826 L10.5575919,13.421826 L8.8,13.421826 L8.8,8.141826 Z M18.9962897,12.641603 L18.9962897,20.0974277 L0.344780488,20.0974277 L0.344780488,12.641603 L18.9962897,12.641603 Z M17.574975,14.0963518 L1.734975,14.0963518 L1.734975,18.6111953 L17.574975,18.6111953 L17.574975,14.0963518 Z" id="形状"></path>
                </g>
            </g>
        </g>
    </g>
</svg>