<?xml version="1.0" encoding="UTF-8"?>
<svg width="18px" height="20px" viewBox="0 0 18 20" version="1.1" xmlns="http://www.w3.org/2000/svg" xmlns:xlink="http://www.w3.org/1999/xlink">
    <title>home_icon_set up_normal</title>
    <g id="页面-1" stroke="none" stroke-width="1" fill="none" fill-rule="evenodd">
        <g id="00整合切图" transform="translate(-389.000000, -111.000000)">
            <g id="编组" transform="translate(386.000000, 110.000000)">
                <rect id="矩形" fill="#D8D8D8" opacity="0" x="0" y="0" width="22" height="22"></rect>
                <path d="M18.7333333,1 L18.7333333,10.4717333 L17.1333333,10.4717333 L17.1333333,2.6 L4.6,2.6 L4.6,19.4 L10.084,19.4 L10.084,21 L3,21 L3,1 L18.7333333,1 Z M10.1998933,13.53312 L10.1998933,15.13312 L6.19989333,15.13312 L6.19989333,13.53312 L10.1998933,13.53312 Z M11.26656,9.53333333 L11.26656,11.1333333 L6.19989333,11.1333333 L6.19989333,9.53333333 L11.26656,9.53333333 Z M15.5332267,5.8 L15.5332267,7.4 L6.19989333,7.4 L6.19989333,5.8 L15.5332267,5.8 Z M16.664322,11 L16.664322,12.5709261 C17.1254396,12.660805 17.5650645,12.8425166 17.9519343,13.1043376 L17.9519343,13.1043376 L19.0617429,11.9945291 L20.0054709,12.9382571 L18.8956624,14.0480657 C19.1574834,14.4368894 19.3411489,14.8765143 19.4290739,15.335678 L19.4290739,15.335678 L21,15.335678 L21,16.6682298 L19.4310277,16.6682298 C19.3411489,17.1293474 19.1594373,17.5689723 18.8976163,17.9558421 L18.8976163,17.9558421 L20.0074248,19.0656506 L19.0636968,20.0093787 L17.9538882,18.8995701 C17.5650645,19.1613912 17.1254396,19.3450567 16.6662759,19.4329816 L16.6662759,19.4329816 L16.6662759,21.0039078 L15.3337241,21.0039078 L15.3337241,19.4329816 C14.8726065,19.3431028 14.4329816,19.1613912 14.0461118,18.8995701 L14.0461118,18.8995701 L12.9363032,20.0093787 L11.9925752,19.0656506 L13.1043376,17.9538882 C12.8425166,17.5650645 12.6588511,17.1254396 12.5709261,16.6662759 L12.5709261,16.6662759 L11,16.6662759 L11,15.3337241 L12.5689723,15.3337241 C12.6588511,14.8726065 12.8405627,14.4329816 13.1023837,14.0461118 L13.1023837,14.0461118 L11.9925752,12.9363032 L12.9343494,11.9945291 L14.0441579,13.1043376 C14.4329816,12.8425166 14.8726065,12.6588511 15.3317702,12.5709261 L15.3317702,12.5709261 L15.3317702,11 L16.664322,11 Z M15.9960922,13.8194607 L15.6873779,13.8644002 C15.3317702,13.9171551 14.9917937,14.0578351 14.7045721,14.2727628 L14.7045721,14.2727628 L14.4544744,14.4603361 L14.268855,14.7104338 C14.0519734,15.0015631 13.9093396,15.3415397 13.8604924,15.6932395 L13.8604924,15.6932395 L13.815553,16.0039078 L13.8604924,16.3126221 C13.9132474,16.6682298 14.0539273,17.0082063 14.268855,17.2954279 L14.268855,17.2954279 L14.4564283,17.5455256 L14.706526,17.731145 C14.9976553,17.9480266 15.3376319,18.0906604 15.6893318,18.1395076 L15.6893318,18.1395076 L16,18.184447 L16.3087143,18.1375537 C16.664322,18.0847987 17.0042986,17.9441188 17.2915201,17.7291911 L17.2915201,17.7291911 L17.5416178,17.5416178 L17.7272372,17.2915201 C17.9441188,17.0003908 18.0867526,16.6604142 18.1355998,16.3087143 L18.1355998,16.3087143 L18.1805393,16 L18.1355998,15.6912857 C18.0828449,15.335678 17.9421649,14.9957014 17.7272372,14.7084799 L17.7272372,14.7084799 L17.5396639,14.4583822 L17.2895662,14.2727628 C16.9984369,14.0558812 16.6584603,13.9132474 16.3067605,13.8644002 L16.3067605,13.8644002 L15.9960922,13.8194607 Z" id="形状结合" fill="#8E9AA8" fill-rule="nonzero"></path>
            </g>
        </g>
    </g>
</svg>