<?xml version="1.0" encoding="UTF-8"?>
<svg width="19px" height="22px" viewBox="0 0 19 22" version="1.1" xmlns="http://www.w3.org/2000/svg" xmlns:xlink="http://www.w3.org/1999/xlink">
    <title>home_icon_fault_normal</title>
    <g id="页面-1" stroke="none" stroke-width="1" fill="none" fill-rule="evenodd">
        <g id="00整合切图" transform="translate(-291.000000, -69.000000)">
            <g id="编组" transform="translate(289.000000, 69.000000)">
                <rect id="矩形" fill="#D8D8D8" opacity="0" x="0" y="0" width="22" height="22"></rect>
                <g id="故障" transform="translate(2.000000, 0.000000)" fill="#8E9AA8" fill-rule="nonzero">
                    <path d="M8.4328602,2.69193019 L9.77774767,2.69193019 C9.88313235,2.69193019 9.97089815,2.60572029 9.97089815,2.49836334 L9.97089815,0.193574518 C9.97089815,0.141901181 9.95029893,0.0924411636 9.91370247,0.0560419058 C9.87711635,0.0197224648 9.82752293,-0.000454205005 9.77597263,-8.86954221e-08 L8.43110708,-8.86954221e-08 C8.32515261,0.000949974609 8.23968781,0.0874009293 8.23968781,0.193574518 L8.23968781,2.5018915 C8.23968781,2.60749533 8.32747552,2.69543644 8.4328602,2.69543644 L8.4328602,2.69193019 Z M0.63306762,19.8 L17.600025,19.8 L17.600025,21.3278774 L0.63306762,21.3278774 L0.63306762,19.8 Z M18.1769228,3.93544325 L17.2211194,2.97140014 C17.184834,2.93502642 17.1355673,2.91458444 17.0841895,2.91458444 C17.0328116,2.91458444 16.9835449,2.93502642 16.9472595,2.97140014 L15.3077375,4.62376371 C15.233668,4.69976166 15.233668,4.82158189 15.3077375,4.8976894 L16.263541,5.85995747 C16.2998244,5.8963433 16.3490969,5.91679327 16.4004819,5.91679327 C16.4518669,5.91679327 16.5011393,5.8963433 16.5374228,5.85995747 L18.1769228,4.20939083 C18.2510143,4.1332614 18.2510143,4.01144117 18.1769228,3.93546516 L18.1769228,3.93544325 Z M1.96898095,5.85995747 L2.92478439,4.89771132 C2.9988539,4.82158189 2.9988539,4.69976166 2.92478439,4.62376371 L1.28524053,2.97140014 C1.24895505,2.93502642 1.1996884,2.91458444 1.14831055,2.91458444 C1.0969327,2.91458444 1.04766604,2.93502642 1.01138057,2.97140014 L0.0555771524,3.93544325 C-0.018492357,4.01144119 -0.018492357,4.13326142 0.0555771524,4.20936892 L1.69512102,5.85995747 C1.73140075,5.89634197 1.78066956,5.9167914 1.83205098,5.9167914 C1.88343241,5.9167914 1.93270121,5.89634197 1.96898095,5.85995747 Z M3.13371298,12.4657302 C3.13384446,9.16354508 5.80740301,6.48656796 9.10529297,6.48656796 C12.4032487,6.48656796 15.0766538,9.16354508 15.076873,12.4657302 L15.076873,17.1367987 L6.49526328,17.1367987 L6.49526328,12.9969269 C6.49429906,12.8637114 6.38604364,12.7561353 6.25302532,12.7561353 L5.18844052,12.7561353 C5.05603579,12.7570776 4.94896373,12.8643907 4.94799951,12.9969269 L4.94799951,17.1367987 L3.13371298,17.1367987 L3.13371298,12.4657302 Z M1.40250263,18.0937636 C1.40250263,18.5215478 1.74791197,18.868009 2.17655088,18.868009 L16.0778632,18.868009 C16.2833896,18.868009 16.480507,18.7864082 16.625846,18.641089 C16.7709771,18.4959623 16.8523271,18.2990064 16.851913,18.0937636 L16.851913,12.4638675 C16.851913,8.20662404 13.393501,4.75535761 9.12720703,4.75535761 C4.86091307,4.75535761 1.40250263,8.20664596 1.40250263,12.4638675 L1.40250263,18.0937855 L1.40250263,18.0937636 Z" id="形状"></path>
                </g>
            </g>
        </g>
    </g>
</svg>