<?xml version="1.0" encoding="UTF-8"?>
<svg width="22px" height="20px" viewBox="0 0 22 20" version="1.1" xmlns="http://www.w3.org/2000/svg" xmlns:xlink="http://www.w3.org/1999/xlink">
    <title>home_icon_Operation_normal</title>
    <g id="页面-1" stroke="none" stroke-width="1" fill="none" fill-rule="evenodd">
        <g id="00整合切图" transform="translate(-289.000000, -111.000000)" fill="#8E9AA8" fill-rule="nonzero" stroke="#8E9AA8" stroke-width="0.525">
            <g id="编组" transform="translate(289.000000, 110.000000)">
                <g id="运行监测" transform="translate(1.000000, 1.600000)">
                    <path d="M2.92762068,7.09885934 L2.04158909,6.9722481 C3.18073729,3.55455657 6.21877155,1.02300245 10.0161557,1.02300247 C13.9402215,1.02300247 17.1047259,3.68123835 18.117404,7.22550583 L19.2566933,7.22550583 C18.2439446,3.04828808 14.44649,0.0103243711 10.0161909,0.0103243711 C5.71239724,0.0103243711 2.04162437,2.79510092 1.02891102,6.71913151 L0.0162681914,6.59255557 L1.15548696,8.61787646 L2.92762068,7.09885934 Z M18.623743,9.88367116 L16.9781147,11.5293348 L17.8642168,11.6559107 C16.8516093,15.0736375 13.6869638,17.7318381 9.88961498,17.7318381 C6.09216035,17.7318381 2.92758541,15.200284 1.91497788,11.6559107 L0.902335075,11.6559107 C1.91497788,15.7064467 5.58589186,18.8709511 10.0162615,18.8709511 C14.4465253,18.8709511 18.1175451,15.8330579 19.1301526,11.7824867 L20.0161489,11.7823456 L18.623743,9.88367116 Z" id="形状"></path>
                    <path d="M9.70663019,5.11114433 C7.4010995,5.11114433 5.52542609,6.98681776 5.52542609,9.29234843 C5.52542609,11.5978791 7.40109952,13.4735173 9.70659492,13.4735173 C10.6515401,13.4735173 11.5786348,13.1460355 12.3188641,12.5511145 L13.7364582,13.6851474 L13.7591417,13.6969302 C13.7835891,13.7091715 13.9117878,13.7702722 14.0331779,13.7702722 C14.20057,13.7702722 14.3288745,13.6668384 14.3904692,13.6052085 L14.4085666,13.5870405 L14.4242651,13.561817 C14.5653049,13.3267625 14.5243123,13.0603463 14.3223482,12.8988456 L13.0097049,11.8486674 C13.5761217,11.1188096 13.8879049,10.2116115 13.8879049,9.29227788 C13.8878343,6.98681776 12.0121256,5.11114433 9.70663019,5.11114433 Z M11.9725794,11.5282059 C11.9541998,11.5438691 11.9365963,11.561261 11.92118,11.5788998 C11.3223784,12.1590395 10.5359002,12.4785485 9.70659492,12.4785485 C7.9497011,12.4785485 6.52035956,11.049207 6.52035956,9.29234843 C6.52035956,7.53541932 7.9497011,6.1060778 9.70659492,6.1060778 C10.5550912,6.1060778 11.3545516,6.43821618 11.9576923,7.04132162 C12.560833,7.64439178 12.8929361,8.44381691 12.8928656,9.29234843 C12.8928656,10.1334364 12.565666,10.9278874 11.9725794,11.5282059 L11.9725794,11.5282059 Z" id="形状"></path>
                </g>
            </g>
        </g>
    </g>
</svg>