<?xml version="1.0" encoding="UTF-8"?>
<svg width="16px" height="16px" viewBox="0 0 16 16" version="1.1" xmlns="http://www.w3.org/2000/svg" xmlns:xlink="http://www.w3.org/1999/xlink">
    <title>home_icon_calendar_normal</title>
    <g id="页面-1" stroke="none" stroke-width="1" fill="none" fill-rule="evenodd">
        <g id="00整合切图" transform="translate(-485.000000, -186.000000)">
            <g id="编组" transform="translate(484.000000, 185.000000)">
                <rect id="矩形" fill="#D8D8D8" opacity="0" x="0" y="0" width="18" height="18"></rect>
                <path d="M5.36368595,1 L5.36368595,2.45469421 L12.636314,2.45469421 L12.636314,1 L14.0910579,1 L14.0910579,2.45469421 L17,2.45469421 L17,17 L1,17 L1,2.45469421 L3.90894215,2.45469421 L3.90894215,1 L5.36368595,1 Z M15.5458017,6.8182314 L2.4547438,6.8182314 L2.4547438,15.5453058 L15.5458017,15.5453058 L15.5458017,6.8182314 Z M5.95246259,12.3332083 L5.95246259,14.3333333 L3.66666667,14.3333333 L3.66666667,12.3332083 L5.95246259,12.3332083 Z M10.142898,12.3332083 L10.142898,14.3333333 L7.85710204,14.3333333 L7.85710204,12.3332083 L10.142898,12.3332083 Z M14.3333333,12.3332083 L14.3333333,14.3333333 L12.0475374,14.3333333 L12.0475374,12.3332083 L14.3333333,12.3332083 Z M5.95246259,9 L5.95246259,11.000125 L3.66666667,11.000125 L3.66666667,9 L5.95246259,9 Z M10.142898,9 L10.142898,11.000125 L7.85710204,11.000125 L7.85710204,9 L10.142898,9 Z M14.3333333,9 L14.3333333,11.000125 L12.0475374,11.000125 L12.0475374,9 L14.3333333,9 Z" id="形状结合" fill="#03B2B4" fill-rule="nonzero"></path>
            </g>
        </g>
    </g>
</svg>