<?xml version="1.0" encoding="UTF-8"?>
<svg width="21px" height="19px" viewBox="0 0 21 19" version="1.1" xmlns="http://www.w3.org/2000/svg" xmlns:xlink="http://www.w3.org/1999/xlink">
    <title>home_icon_function_normal</title>
    <g id="页面-1" stroke="none" stroke-width="1" fill="none" fill-rule="evenodd">
        <g id="00整合切图" transform="translate(-190.000000, -112.000000)">
            <g id="编组" transform="translate(189.000000, 110.000000)">
                <rect id="矩形" fill="#D8D8D8" opacity="0" x="0" y="0" width="22" height="22"></rect>
                <g id="运行" transform="translate(1.000000, 2.000000)" fill="#8E9AA8" fill-rule="nonzero">
                    <path d="M12.2189891,16.89765 L10.0035891,16.89765 L10.0035891,14.57775 L11.9786391,14.57775 C11.8845891,14.1284 11.8323391,13.63725 11.8323391,13.19835 L2.49003906,13.19835 C2.26947348,13.19835 1.88979014,13.19835 1.35098906,13.19835 C1.35098906,12.6119019 1.35098906,12.2148019 1.35098906,12.00705 L1.35098906,2.6125 C1.35098906,2.37784494 1.35098906,1.98074494 1.35098906,1.4212 C1.91692426,1.4212 2.29660759,1.4212 2.49003906,1.4212 L16.8274391,1.4212 C17.0453901,1.4212 17.4250734,1.4212 17.9664891,1.4212 C17.9664891,2.00499068 17.9664891,2.40209068 17.9664891,2.6125 L17.9664891,6.8134 C18.4158391,6.8134 18.9069891,6.86565 19.3040891,6.9597 L19.3040891,2.5707 C19.3040891,2.07091574 19.3040891,1.21401574 19.3040891,-1.42108547e-14 C18.0943637,-1.42108547e-14 17.2688137,-1.42108547e-14 16.8274391,-1.42108547e-14 L2.49003906,-1.42108547e-14 C2.05991407,-1.42108547e-14 1.23436407,-1.42108547e-14 0.0133890625,-1.42108547e-14 C0.0133890625,1.21973482 0.0133890625,2.07663482 0.0133890625,2.5707 L0.0133890625,11.96525 C0.0133890625,12.4576848 0.0133890625,13.3145848 0.0133890625,14.53595 C1.23284079,14.53595 2.05839079,14.53595 2.49003906,14.53595 L8.57193906,14.53595 L8.57193906,16.85585 L6.29383906,16.85585 C6.29383906,17.0509167 6.29383906,17.2808167 6.29383906,17.54555 C6.29383906,17.8102833 6.29383906,18.0401833 6.29383906,18.23525 L12.2189891,18.23525 C12.2189891,18.0401833 12.2189891,17.8102833 12.2189891,17.54555 C12.2189891,17.2808167 12.2189891,17.06485 12.2189891,16.89765 Z" id="路径"></path>
                    <path d="M15.8764891,14.28515 C14.3403391,14.28515 13.0549891,12.9998 13.0549891,11.46365 C13.0549891,9.9275 14.3403391,8.64215 15.8764891,8.64215 L15.8764891,7.26275 C13.5565891,7.26275 11.6755891,9.14375 11.6755891,11.46365 C11.6755891,13.78355 13.5565891,15.66455 15.8764891,15.66455 C18.1963891,15.66455 20.0773891,13.78355 20.0773891,11.46365 L18.6979891,11.46365 C18.6979891,13.0416 17.4648891,14.28515 15.8764891,14.28515 L15.8764891,14.28515 Z" id="路径"></path>
                    <path d="M17.2663391,7.01195 L16.8169891,7.01195 L16.8169891,10.41865 L20.2236891,10.41865 L20.2236891,9.97975 C20.2341391,8.2973 18.8965391,7.01195 17.2663391,7.01195 L17.2663391,7.01195 Z M17.7574891,9.4886 L17.7574891,8.0047 C18.4994391,8.20325 19.0428391,8.74665 19.2413891,9.4886 L17.7574891,9.4886 Z M13.8073891,4.58755 L8.41518906,9.08105 L5.99078906,6.71935 C5.73998906,6.46855 5.35333906,6.46855 5.10253906,6.71935 C4.85173906,6.97015 4.85173906,7.3568 5.10253906,7.6076 L7.92403906,10.37685 C8.01808906,10.4709 8.21663906,10.5754 8.37338906,10.5754 C8.53013906,10.5754 8.66598906,10.52315 8.77048906,10.4291 L14.6015891,5.5803 C14.8523891,5.38175 14.8941891,4.98465 14.6956391,4.7443 C14.4970891,4.39945 14.0999891,4.3472 13.8073891,4.58755 L13.8073891,4.58755 Z" id="形状"></path>
                </g>
            </g>
        </g>
    </g>
</svg>