<?xml version="1.0" encoding="UTF-8"?>
<svg width="39px" height="39px" viewBox="0 0 39 39" version="1.1" xmlns="http://www.w3.org/2000/svg" xmlns:xlink="http://www.w3.org/1999/xlink">
    <title>component/logo/90x90</title>
    <defs>
        <linearGradient x1="-16.4285714%" y1="0%" x2="119.001116%" y2="108.504464%" id="linearGradient-1">
            <stop stop-color="#04B6D1" offset="0%"></stop>
            <stop stop-color="#14D2B8" offset="100%"></stop>
        </linearGradient>
    </defs>
    <g id="页面-1" stroke="none" stroke-width="1" fill="none" fill-rule="evenodd">
        <g id="02运维概况" transform="translate(-18.000000, -26.000000)">
            <g id="Group" transform="translate(18.000000, 26.000000)">
                <path d="M16.9846696,-5.48274917e-16 L22.0153304,5.48274917e-16 C27.1009294,-3.85934474e-16 29.5564384,0.649779278 31.8379199,1.86992893 C34.1194014,3.09007857 35.9099214,4.88059859 37.1300711,7.16208008 C38.3502207,9.44356156 39,11.8990706 39,16.9846696 L39,22.0153304 C39,27.1009294 38.3502207,29.5564384 37.1300711,31.8379199 C35.9099214,34.1194014 34.1194014,35.9099214 31.8379199,37.1300711 C29.5564384,38.3502207 27.1009294,39 22.0153304,39 L16.9846696,39 C11.8990706,39 9.44356156,38.3502207 7.16208008,37.1300711 C4.88059859,35.9099214 3.09007857,34.1194014 1.86992893,31.8379199 C0.649779278,29.5564384 2.5728965e-16,27.1009294 -3.65516611e-16,22.0153304 L3.65516611e-16,16.9846696 C-2.5728965e-16,11.8990706 0.649779278,9.44356156 1.86992893,7.16208008 C3.09007857,4.88059859 4.88059859,3.09007857 7.16208008,1.86992893 C9.44356156,0.649779278 11.8990706,3.85934474e-16 16.9846696,-5.48274917e-16 Z" id="Rectangle" fill="url(#linearGradient-1)"></path>
                <g id="编组" transform="translate(9.000000, 9.000000)">
                    <path d="M4.79347826,0 L4.8125,0 C7.47037036,-4.88242864e-16 9.625,2.15462964 9.625,4.8125 L9.625,9.58695652 L9.625,9.58695652 L4.79347826,9.58695652 C2.14611332,9.58695652 3.242087e-16,7.4408432 0,4.79347826 C-3.242087e-16,2.14611332 2.14611332,-4.01865369e-16 4.79347826,0 Z" id="Rectangle" fill="#FFFFFF"></path>
                    <path d="M16.2518116,0 L16.2708333,0 C18.9287037,-4.88242864e-16 21.0833333,2.15462964 21.0833333,4.8125 L21.0833333,9.58695652 L21.0833333,9.58695652 L16.2518116,9.58695652 C13.6044467,9.58695652 11.4583333,7.4408432 11.4583333,4.79347826 C11.4583333,2.14611332 13.6044467,4.8631305e-16 16.2518116,0 Z" id="Rectangle-Copy" fill="#C2FEFF" transform="translate(16.270833, 4.793478) scale(-1, 1) translate(-16.270833, -4.793478) "></path>
                    <path d="M4.79347826,11.4130435 L4.8125,11.4130435 C7.47037036,11.4130435 9.625,13.5676731 9.625,16.2255435 L9.625,21 L9.625,21 L4.79347826,21 C2.14611332,21 3.242087e-16,18.8538867 0,16.2065217 C-3.242087e-16,13.5591568 2.14611332,11.4130435 4.79347826,11.4130435 Z" id="Rectangle-Copy-3" fill="#C2FEFF" transform="translate(4.812500, 16.206522) scale(1, -1) translate(-4.812500, -16.206522) "></path>
                    <path d="M16.2518116,11.4130435 L16.2708333,11.4130435 C18.9287037,11.4130435 21.0833333,13.5676731 21.0833333,16.2255435 L21.0833333,21 L21.0833333,21 L16.2518116,21 C13.6044467,21 11.4583333,18.8538867 11.4583333,16.2065217 C11.4583333,13.5591568 13.6044467,11.4130435 16.2518116,11.4130435 Z" id="Rectangle-Copy-2" fill="#FFFFFF" transform="translate(16.270833, 16.206522) scale(-1, -1) translate(-16.270833, -16.206522) "></path>
                    <ellipse id="Oval" fill="#FFFFFF" cx="20.625" cy="10.5" rx="1" ry="1"></ellipse>
                    <ellipse id="Oval-Copy" fill="#FFFFFF" cx="0.916666667" cy="10.5" rx="1" ry="1"></ellipse>
                </g>
            </g>
        </g>
    </g>
</svg>