<?xml version="1.0" encoding="UTF-8"?>
<svg width="12px" height="14px" viewBox="0 0 12 14" version="1.1" xmlns="http://www.w3.org/2000/svg" xmlns:xlink="http://www.w3.org/1999/xlink">
    <title>监控 (3)</title>
    <g id="页面-1" stroke="none" stroke-width="1" fill="none" fill-rule="evenodd">
        <g id="00整合切图" transform="translate(-271.000000, -188.000000)" fill-rule="nonzero">
            <g id="监控-(3)" transform="translate(271.000000, 188.000000)">
                <g id="编组-8" transform="translate(2.200000, 10.640000)" fill="#BEC9DE">
                    <path d="M0.583333338,1.75 L6.76666666,1.75 C7.15555555,1.75 7.35,1.94444445 7.35,2.33333334 L7.35,2.33333334 C7.35,2.72222223 7.15555555,2.91666666 6.76666666,2.91666666 L0.583333338,2.91666666 C0.194444446,2.91666666 -4.52970994e-14,2.72222222 -4.52970994e-14,2.33333334 L-4.52970994e-14,2.33333334 C-4.52970994e-14,1.94444445 0.194444446,1.75 0.583333338,1.75 Z" id="路径"></path>
                    <polygon id="路径" points="3.15 0 4.31666666 0 4.31666666 1.75 3.15 1.75"></polygon>
                </g>
                <path d="M5.83789063,11.6666667 C9.05964063,11.6666667 11.671224,9.05508332 11.671224,5.83333334 C11.671224,2.61158335 9.05964063,0 5.83789063,0 C2.61614062,0 0.00455728711,2.61158334 0.00455728711,5.83333334 C0.00455728711,9.05508334 2.61614062,11.6666667 5.83789063,11.6666667 Z" id="形状" fill="#BEC9DE"></path>
                <path d="M5.83789063,10.5 C3.26056179,10.5 1.17122396,8.41066216 1.17122396,5.83333333 C1.17122396,3.2560045 3.26056179,1.16666666 5.83789063,1.16666666 C8.41521946,1.16666666 10.5045573,3.2560045 10.5045573,5.83333333 C10.5045573,8.41066216 8.41521946,10.5 5.83789063,10.5 Z" id="路径" fill="#BEC9DE"></path>
                <path d="M4.1,5.92666666 C4.1,6.89316497 4.88350169,7.67666666 5.85,7.67666666 C6.81649831,7.67666666 7.6,6.89316497 7.6,5.92666666 C7.6,4.96016835 6.81649831,4.17666666 5.85,4.17666666 C4.88350169,4.17666666 4.1,4.96016835 4.1,5.92666666 Z" id="路径" fill="#FFFFFF"></path>
            </g>
        </g>
    </g>
</svg>