<?xml version="1.0" encoding="UTF-8"?>
<svg width="18px" height="18px" viewBox="0 0 18 18" version="1.1" xmlns="http://www.w3.org/2000/svg" xmlns:xlink="http://www.w3.org/1999/xlink">
    <title>播放</title>
    <g id="页面-1" stroke="none" stroke-width="1" fill="none" fill-rule="evenodd">
        <g id="00整合切图" transform="translate(-189.000000, -407.000000)" fill="#919DB5" fill-rule="nonzero">
            <g id="播放" transform="translate(189.000000, 407.000000)">
                <path d="M9,18 C4.02952148,18 0,13.9704785 0,9 C0,4.02952148 4.02952148,0 9,0 C13.9704785,0 18,4.02952148 18,9 C18,13.9704785 13.9704785,18 9,18 Z M7.5015,13.473668 L12.898582,9.42570703 C13.197832,9.201375 13.197832,8.838 12.898582,8.61366797 L7.5015,4.56570703 C7.20225,4.341375 6.96014648,4.46220703 6.96014648,4.83547852 L6.96014648,13.2038965 C6.96014648,13.578082 7.20270703,13.698 7.5015,13.4738965 L7.5015,13.473668 Z" id="形状"></path>
            </g>
        </g>
    </g>
</svg>