<?xml version="1.0" encoding="UTF-8"?>
<svg width="22px" height="15px" viewBox="0 0 22 15" version="1.1" xmlns="http://www.w3.org/2000/svg" xmlns:xlink="http://www.w3.org/1999/xlink">
    <title>预览 (1)</title>
    <g id="页面-1" stroke="none" stroke-width="1" fill="none" fill-rule="evenodd">
        <g id="00整合切图" transform="translate(-300.000000, -378.000000)" fill="#03B2B4" fill-rule="nonzero">
            <g id="预览-(1)" transform="translate(300.000000, 378.000000)">
                <path d="M12.2177021,7.95126973 C11.4009187,7.95126973 10.740143,7.27870254 10.740143,6.44747695 C10.740143,5.70343008 11.280948,5.1121459 11.979109,4.99219805 C11.6067656,4.79421211 11.1898389,4.66967109 10.740143,4.66967109 C9.25799062,4.66967109 8.05508437,5.89485762 8.05508437,7.40584863 C8.05508437,8.9168625 9.25799062,10.1413863 10.740143,10.1413863 C12.222958,10.1413863 13.4258414,8.9168625 13.4258414,7.40584863 C13.4258414,7.36259063 13.4147127,7.32522832 13.4133873,7.28261016 C13.1485834,7.6759541 12.7237957,7.95126973 12.2177021,7.95126973 M21.3833496,6.90766172 C21.3427195,6.7516541 21.2889498,6.60874043 21.2122828,6.47238516 C20.132615,4.18261289 15.8585273,0.0186697266 10.7421082,0.0186697266 C5.58636152,0.0186697266 1.28409785,4.21734727 0.243757617,6.51434063 C0.180824414,6.63364863 0.140171484,6.75688711 0.102832031,6.89061445 C0.0418640625,7.07941406 -9.140625e-05,7.25639941 -9.140625e-05,7.4038834 C-9.140625e-05,7.55006484 0.0418640625,7.72837559 0.102169336,7.9171752 C0.140194336,8.05023984 0.180824414,8.17414102 0.243757617,8.29344902 C1.28210977,10.5904424 5.58633867,14.7891199 10.740143,14.7891199 C15.8572248,14.7891199 20.1312896,10.6245141 21.2103176,8.33604434 C21.2869846,8.19904922 21.3413941,8.05679824 21.3820699,7.90143047 C21.4397473,7.71720117 21.4805151,7.54677422 21.4805151,7.40582578 C21.4830053,7.2642832 21.4410498,7.09253086 21.3833496,6.90766172 M10.740143,12.0529424 C8.21897578,12.0529424 6.17501777,9.97029668 6.17501777,7.40390625 C6.17501777,4.83685313 8.21897578,2.75420742 10.740143,2.75420742 C13.2613102,2.75420742 15.305291,4.83685313 15.305291,7.40390625 C15.305291,9.97031953 13.2613102,12.0529424 10.740143,12.0529424" id="形状"></path>
            </g>
        </g>
    </g>
</svg>